<svg width="22" height="22" viewBox="0 0 22 22" fill="none" xmlns="http://www.w3.org/2000/svg">
<path d="M11.0875 19.75C9.8625 19.75 8.71421 19.5167 7.64262 19.05C6.57104 18.5833 5.63771 17.9525 4.84262 17.1574C4.04754 16.3629 3.41667 15.4295 2.95 14.3574C2.48333 13.2852 2.25 12.1369 2.25 10.9125C2.25 8.78333 2.92812 6.90558 4.28437 5.27925C5.64062 3.65292 7.36875 2.64317 9.46875 2.25C9.20625 3.69375 9.28646 5.10483 9.70937 6.48325C10.1323 7.86167 10.8615 9.06829 11.8969 10.1031C12.9323 11.1385 14.1392 11.8677 15.5176 12.2906C16.896 12.7135 18.3068 12.7937 19.75 12.5312C19.3708 14.6313 18.3646 16.3594 16.7312 17.7156C15.0979 19.0719 13.2167 19.75 11.0875 19.75Z" fill="#BEFF6C"/>
</svg>
