<svg width="25" height="25" viewBox="0 0 25 25" fill="none" xmlns="http://www.w3.org/2000/svg">
<path fill-rule="evenodd" clip-rule="evenodd" d="M21.0564 3.69444C18.7945 1.43052 15.7866 0.183221 12.5814 0.181885C5.97766 0.181885 0.603173 5.55436 0.6005 12.1582C0.597893 14.2599 1.1495 16.325 2.19968 18.1455L0.5 24.3519L6.85128 22.6864C8.60802 23.6429 10.5764 24.144 12.5766 24.1442H12.5815C19.1845 24.1442 24.5596 18.7711 24.5623 12.1673C24.5635 8.96709 23.3185 5.95783 21.0564 3.69431V3.69444ZM12.5815 22.1219H12.5774C10.7941 22.1222 9.04354 21.6429 7.50908 20.7343L7.14543 20.5186L3.37668 21.5075L4.38262 17.8341L4.1462 17.4568C3.14843 15.8701 2.62022 14.0333 2.62266 12.1589C2.62534 6.67029 7.09251 2.20498 12.5854 2.20498C15.2449 2.20605 17.7454 3.24286 19.6255 5.12456C21.5056 7.00627 22.5404 9.50728 22.5389 12.1676C22.5368 17.6567 18.0697 22.1226 12.5811 22.1226L12.5815 22.1219Z" fill="#7C56FE"/>
<path fill-rule="evenodd" clip-rule="evenodd" d="M8.56446 17.9598C8.64878 18.0106 8.82199 18.0106 9.21931 18.0102C10.9052 18.0087 12.3614 18.0036 13.3973 18.0036C18.2313 18.0036 18.1042 12.9146 15.844 12.2797C16.1751 11.6932 17.6834 10.5915 16.7505 8.3142C15.8284 6.06243 11.8612 6.57349 9.14808 6.57482C8.14415 6.57482 8.29436 7.31668 8.29944 8.47003C8.30773 10.2968 8.30091 15.2414 8.29944 17.3788C8.29944 17.8121 8.43028 17.8787 8.56446 17.9598ZM10.6561 16.0948C11.1125 16.0948 12.1891 16.0948 13.1121 16.0933C14.1572 16.0917 15.0877 15.6029 15.0645 14.5624C15.0475 13.5824 14.3955 13.2608 13.4904 13.1709C12.6284 13.1792 11.6425 13.1792 10.6561 13.1792V16.0948ZM10.6561 11.2109C12.4743 11.1859 13.1758 11.2842 14.1685 11.0356C14.8501 10.648 15.1487 9.21242 14.1724 8.72462C13.4942 8.38583 11.4901 8.5017 10.6561 8.53645V11.2109Z" fill="#7C56FE"/>
</svg>
